<svg width="250" height="50" viewBox="0 0 250 50" fill="none" xmlns="http://www.w3.org/2000/svg">
<rect width="250" height="50" rx="10" fill="#FCF961"/>
<path d="M44.0002 19H42.2002C41.0801 19 40.5196 19 40.0918 19.218C39.7155 19.4097 39.4097 19.7155 39.218 20.0918C39 20.5196 39 21.0801 39 22.2002V29.8002C39 30.9203 39 31.4801 39.218 31.9079C39.4097 32.2842 39.7155 32.5905 40.0918 32.7822C40.5192 33 41.079 33 42.1969 33H49.8031C50.921 33 51.48 33 51.9074 32.7822C52.2837 32.5905 52.5905 32.2839 52.7822 31.9076C53 31.4802 53 30.921 53 29.8031V28M54 23V18M54 18H49M54 18L47 25" stroke="#1E002E" stroke-width="2.10526" stroke-linecap="round" stroke-linejoin="round"/>
<path d="M68.7553 19.64H70.4513L74.8673 31H72.9793L71.7793 27.912H67.3953L66.2113 31H64.3073L68.7553 19.64ZM71.4273 26.584L69.6033 21.608L67.7153 26.584H71.4273ZM80.8002 31.16C80.1282 31.16 79.5362 31 79.0242 30.68C78.5122 30.36 78.1069 29.944 77.8082 29.432V34.408H76.0482V22.632H77.6002V24.136C77.9202 23.6347 78.3362 23.2347 78.8482 22.936C79.3602 22.6373 79.9309 22.488 80.5602 22.488C81.1362 22.488 81.6642 22.6053 82.1442 22.84C82.6242 23.064 83.0402 23.3787 83.3922 23.784C83.7442 24.1893 84.0162 24.6533 84.2082 25.176C84.4109 25.688 84.5122 26.232 84.5122 26.808C84.5122 27.608 84.3522 28.3387 84.0322 29C83.7229 29.6613 83.2855 30.1893 82.7202 30.584C82.1655 30.968 81.5255 31.16 80.8002 31.16ZM80.2242 29.656C80.5975 29.656 80.9335 29.576 81.2322 29.416C81.5415 29.256 81.8029 29.0427 82.0162 28.776C82.2402 28.5093 82.4109 28.2053 82.5282 27.864C82.6455 27.5227 82.7042 27.1707 82.7042 26.808C82.7042 26.424 82.6402 26.0613 82.5122 25.72C82.3842 25.3787 82.1975 25.08 81.9522 24.824C81.7175 24.568 81.4402 24.3653 81.1202 24.216C80.8109 24.0667 80.4695 23.992 80.0962 23.992C79.8722 23.992 79.6375 24.0347 79.3922 24.12C79.1469 24.2053 78.9175 24.3227 78.7042 24.472C78.4909 24.6213 78.3042 24.7973 78.1442 25C77.9842 25.2027 77.8722 25.416 77.8082 25.64V27.832C77.9575 28.1733 78.1549 28.4827 78.4002 28.76C78.6455 29.0267 78.9282 29.2453 79.2482 29.416C79.5682 29.576 79.8935 29.656 80.2242 29.656ZM90.8471 31.16C90.1751 31.16 89.5831 31 89.0711 30.68C88.5591 30.36 88.1537 29.944 87.8551 29.432V34.408H86.0951V22.632H87.6471V24.136C87.9671 23.6347 88.3831 23.2347 88.8951 22.936C89.4071 22.6373 89.9777 22.488 90.6071 22.488C91.1831 22.488 91.7111 22.6053 92.1911 22.84C92.6711 23.064 93.0871 23.3787 93.4391 23.784C93.7911 24.1893 94.0631 24.6533 94.2551 25.176C94.4577 25.688 94.5591 26.232 94.5591 26.808C94.5591 27.608 94.3991 28.3387 94.0791 29C93.7697 29.6613 93.3324 30.1893 92.7671 30.584C92.2124 30.968 91.5724 31.16 90.8471 31.16ZM90.2711 29.656C90.6444 29.656 90.9804 29.576 91.2791 29.416C91.5884 29.256 91.8497 29.0427 92.0631 28.776C92.2871 28.5093 92.4577 28.2053 92.5751 27.864C92.6924 27.5227 92.7511 27.1707 92.7511 26.808C92.7511 26.424 92.6871 26.0613 92.5591 25.72C92.4311 25.3787 92.2444 25.08 91.9991 24.824C91.7644 24.568 91.4871 24.3653 91.1671 24.216C90.8577 24.0667 90.5164 23.992 90.1431 23.992C89.9191 23.992 89.6844 24.0347 89.4391 24.12C89.1937 24.2053 88.9644 24.3227 88.7511 24.472C88.5377 24.6213 88.3511 24.7973 88.1911 25C88.0311 25.2027 87.9191 25.416 87.8551 25.64V27.832C88.0044 28.1733 88.2017 28.4827 88.4471 28.76C88.6924 29.0267 88.9751 29.2453 89.2951 29.416C89.6151 29.576 89.9404 29.656 90.2711 29.656ZM96.1579 19.32H97.9179V28.584C97.9179 29.0107 97.9819 29.2827 98.1099 29.4C98.2379 29.5173 98.3979 29.576 98.5899 29.576C98.8033 29.576 99.0006 29.5547 99.1819 29.512C99.3739 29.4693 99.5393 29.416 99.6779 29.352L99.9339 30.744C99.6779 30.8507 99.3739 30.9413 99.0219 31.016C98.6699 31.0907 98.3553 31.128 98.0779 31.128C97.4806 31.128 97.0113 30.9627 96.6699 30.632C96.3286 30.2907 96.1579 29.8213 96.1579 29.224V19.32ZM100.883 32.968C101.043 32.9893 101.198 33.0107 101.347 33.032C101.507 33.064 101.635 33.08 101.731 33.08C101.912 33.08 102.067 33.0213 102.195 32.904C102.334 32.7973 102.472 32.5947 102.611 32.296C102.75 31.9973 102.92 31.5653 103.123 31L99.6831 22.632H101.523L104.083 29.208L106.355 22.632H108.051L104.259 32.936C104.142 33.2453 103.971 33.528 103.747 33.784C103.523 34.0507 103.246 34.2587 102.915 34.408C102.584 34.5573 102.195 34.632 101.747 34.632C101.619 34.632 101.486 34.6213 101.347 34.6C101.208 34.5787 101.054 34.5467 100.883 34.504V32.968ZM122.855 22.632H124.535L121.015 31H119.511L118.007 27.224L116.503 31H114.999L111.463 22.632H113.143L115.831 29.288L117.015 26.2L115.575 22.648H117.063L118.007 25.256L118.935 22.648H120.423L118.999 26.2L120.183 29.288L122.855 22.632ZM125.704 31V22.632H127.464V31H125.704ZM125.704 21.256V19.32H127.464V21.256H125.704ZM134.235 30.568C134.086 30.6427 133.899 30.7227 133.675 30.808C133.451 30.8933 133.195 30.968 132.907 31.032C132.63 31.096 132.342 31.128 132.043 31.128C131.681 31.128 131.345 31.064 131.035 30.936C130.726 30.808 130.475 30.6053 130.283 30.328C130.102 30.04 130.011 29.672 130.011 29.224V23.992H128.907V22.632H130.011V19.88H131.771V22.632H133.595V23.992H131.771V28.664C131.793 28.952 131.883 29.1653 132.043 29.304C132.214 29.4427 132.422 29.512 132.667 29.512C132.913 29.512 133.147 29.4693 133.371 29.384C133.595 29.2987 133.761 29.2293 133.867 29.176L134.235 30.568ZM142.958 31H141.198V26.312C141.198 25.5547 141.06 24.9893 140.782 24.616C140.505 24.2427 140.116 24.056 139.614 24.056C139.305 24.056 138.985 24.1413 138.654 24.312C138.324 24.4827 138.03 24.7173 137.774 25.016C137.518 25.304 137.332 25.64 137.214 26.024V31H135.454V19.32H137.214V24.312C137.534 23.7467 137.972 23.304 138.526 22.984C139.081 22.6533 139.678 22.488 140.318 22.488C140.841 22.488 141.273 22.5787 141.614 22.76C141.956 22.9413 142.222 23.192 142.414 23.512C142.617 23.8213 142.756 24.184 142.83 24.6C142.916 25.0053 142.958 25.4373 142.958 25.896V31ZM149.178 31V19.64H153.21C154.437 19.64 155.461 19.896 156.282 20.408C157.104 20.9093 157.717 21.592 158.122 22.456C158.538 23.3093 158.746 24.2587 158.746 25.304C158.746 26.456 158.517 27.4587 158.058 28.312C157.61 29.1653 156.97 29.8267 156.138 30.296C155.306 30.7653 154.33 31 153.21 31H149.178ZM156.922 25.304C156.922 24.504 156.773 23.8 156.474 23.192C156.186 22.5733 155.765 22.0933 155.21 21.752C154.666 21.4 154 21.224 153.21 21.224H150.97V29.416H153.21C154.01 29.416 154.682 29.2347 155.226 28.872C155.781 28.5093 156.202 28.0187 156.49 27.4C156.778 26.7813 156.922 26.0827 156.922 25.304ZM164.2 31.16C163.549 31.16 162.957 31.048 162.424 30.824C161.901 30.5893 161.448 30.2747 161.064 29.88C160.68 29.4747 160.381 29.016 160.168 28.504C159.965 27.9813 159.864 27.4267 159.864 26.84C159.864 26.0507 160.045 25.3307 160.408 24.68C160.77 24.0187 161.277 23.4907 161.928 23.096C162.578 22.6907 163.341 22.488 164.216 22.488C165.09 22.488 165.842 22.6907 166.472 23.096C167.112 23.4907 167.608 24.0133 167.96 24.664C168.312 25.3147 168.488 26.0133 168.488 26.76C168.488 26.888 168.482 27.0107 168.472 27.128C168.461 27.2347 168.45 27.3253 168.44 27.4H161.736C161.768 27.8907 161.901 28.3227 162.136 28.696C162.381 29.0587 162.69 29.3467 163.064 29.56C163.437 29.7627 163.837 29.864 164.264 29.864C164.733 29.864 165.176 29.7467 165.592 29.512C166.018 29.2773 166.306 28.968 166.456 28.584L167.96 29.016C167.778 29.4213 167.501 29.7893 167.128 30.12C166.765 30.44 166.333 30.696 165.832 30.888C165.33 31.0693 164.786 31.16 164.2 31.16ZM161.688 26.232H166.744C166.712 25.752 166.573 25.3307 166.328 24.968C166.093 24.5947 165.789 24.3067 165.416 24.104C165.053 23.8907 164.648 23.784 164.2 23.784C163.762 23.784 163.357 23.8907 162.984 24.104C162.621 24.3067 162.322 24.5947 162.088 24.968C161.853 25.3307 161.72 25.752 161.688 26.232ZM172.025 31L168.841 22.632H170.665L173.049 29.368L175.433 22.632H177.129L173.945 31H172.025ZM178.856 31V24.2H177.736V22.84H178.856V22.504C178.856 21.8213 178.963 21.2293 179.176 20.728C179.4 20.2267 179.71 19.8427 180.104 19.576C180.51 19.2987 180.984 19.16 181.528 19.16C181.87 19.16 182.206 19.208 182.536 19.304C182.867 19.3893 183.182 19.512 183.48 19.672L183.096 20.984C182.936 20.8773 182.744 20.7973 182.52 20.744C182.307 20.68 182.099 20.648 181.896 20.648C181.491 20.648 181.176 20.8027 180.952 21.112C180.728 21.4213 180.616 21.8693 180.616 22.456V22.84H182.76V24.2H180.616V31H178.856ZM187.683 31.16C187.022 31.16 186.43 31.048 185.907 30.824C185.385 30.5893 184.931 30.2693 184.547 29.864C184.174 29.4587 183.886 29 183.683 28.488C183.481 27.9653 183.379 27.4107 183.379 26.824C183.379 26.2373 183.481 25.6827 183.683 25.16C183.886 24.6373 184.174 24.1787 184.547 23.784C184.931 23.3787 185.385 23.064 185.907 22.84C186.441 22.6053 187.033 22.488 187.683 22.488C188.334 22.488 188.921 22.6053 189.443 22.84C189.977 23.064 190.43 23.3787 190.803 23.784C191.187 24.1787 191.481 24.6373 191.683 25.16C191.886 25.6827 191.987 26.2373 191.987 26.824C191.987 27.4107 191.886 27.9653 191.683 28.488C191.481 29 191.187 29.4587 190.803 29.864C190.43 30.2693 189.977 30.5893 189.443 30.824C188.921 31.048 188.334 31.16 187.683 31.16ZM185.187 26.84C185.187 27.3733 185.299 27.8533 185.523 28.28C185.747 28.7067 186.046 29.0427 186.419 29.288C186.793 29.5333 187.214 29.656 187.683 29.656C188.142 29.656 188.558 29.5333 188.931 29.288C189.315 29.032 189.619 28.6907 189.843 28.264C190.067 27.8267 190.179 27.3467 190.179 26.824C190.179 26.2907 190.067 25.8107 189.843 25.384C189.619 24.9573 189.315 24.6213 188.931 24.376C188.558 24.12 188.142 23.992 187.683 23.992C187.214 23.992 186.793 24.12 186.419 24.376C186.046 24.632 185.747 24.9733 185.523 25.4C185.299 25.816 185.187 26.296 185.187 26.84ZM193.564 19.32H195.324V28.584C195.324 29.0107 195.388 29.2827 195.516 29.4C195.644 29.5173 195.804 29.576 195.996 29.576C196.21 29.576 196.407 29.5547 196.588 29.512C196.78 29.4693 196.946 29.416 197.084 29.352L197.34 30.744C197.084 30.8507 196.78 30.9413 196.428 31.016C196.076 31.0907 195.762 31.128 195.484 31.128C194.887 31.128 194.418 30.9627 194.076 30.632C193.735 30.2907 193.564 29.8213 193.564 29.224V19.32ZM198.361 31V22.632H200.121V31H198.361ZM198.361 21.256V19.32H200.121V21.256H198.361ZM205.996 31.16C205.334 31.16 204.742 31.048 204.22 30.824C203.697 30.5893 203.244 30.2693 202.86 29.864C202.486 29.4587 202.198 29 201.996 28.488C201.793 27.9653 201.692 27.4107 201.692 26.824C201.692 26.2373 201.793 25.6827 201.996 25.16C202.198 24.6373 202.486 24.1787 202.86 23.784C203.244 23.3787 203.697 23.064 204.22 22.84C204.753 22.6053 205.345 22.488 205.996 22.488C206.646 22.488 207.233 22.6053 207.756 22.84C208.289 23.064 208.742 23.3787 209.116 23.784C209.5 24.1787 209.793 24.6373 209.996 25.16C210.198 25.6827 210.3 26.2373 210.3 26.824C210.3 27.4107 210.198 27.9653 209.996 28.488C209.793 29 209.5 29.4587 209.116 29.864C208.742 30.2693 208.289 30.5893 207.756 30.824C207.233 31.048 206.646 31.16 205.996 31.16ZM203.5 26.84C203.5 27.3733 203.612 27.8533 203.836 28.28C204.06 28.7067 204.358 29.0427 204.732 29.288C205.105 29.5333 205.526 29.656 205.996 29.656C206.454 29.656 206.87 29.5333 207.244 29.288C207.628 29.032 207.932 28.6907 208.156 28.264C208.38 27.8267 208.492 27.3467 208.492 26.824C208.492 26.2907 208.38 25.8107 208.156 25.384C207.932 24.9573 207.628 24.6213 207.244 24.376C206.87 24.12 206.454 23.992 205.996 23.992C205.526 23.992 205.105 24.12 204.732 24.376C204.358 24.632 204.06 24.9733 203.836 25.4C203.612 25.816 203.5 26.296 203.5 26.84Z" fill="#1E002E"/>
</svg>
