<svg width="138" height="19" viewBox="0 0 138 19" fill="none" xmlns="http://www.w3.org/2000/svg">
<path d="M14.4006 4.10212C13.3002 3.58725 12.1235 3.21306 10.8934 3C10.7423 3.27314 10.5658 3.64052 10.4441 3.93277C9.13644 3.73611 7.84078 3.73611 6.55715 3.93277C6.43549 3.64052 6.25498 3.27314 6.10255 3C4.87107 3.21306 3.69308 3.58862 2.59264 4.10484C0.373039 7.45895 -0.228658 10.7297 0.072191 13.9541C1.54435 15.0535 2.97104 15.7213 4.37366 16.1583C4.71997 15.6817 5.02884 15.175 5.29492 14.641C4.78816 14.4485 4.30279 14.2108 3.84418 13.935C3.96585 13.8448 4.08486 13.7506 4.19984 13.6536C6.99705 14.962 10.0363 14.962 12.8001 13.6536C12.9164 13.7506 13.0354 13.8448 13.1558 13.935C12.6958 14.2122 12.2091 14.4498 11.7023 14.6424C11.9684 15.175 12.276 15.6831 12.6236 16.1597C14.0276 15.7226 15.4556 15.0548 16.9277 13.9541C17.2807 10.2162 16.3247 6.97549 14.4006 4.10212ZM5.676 11.9711C4.8363 11.9711 4.14768 11.1872 4.14768 10.2326C4.14768 9.27802 4.8216 8.49276 5.676 8.49276C6.53042 8.49276 7.21902 9.27665 7.20432 10.2326C7.20564 11.1872 6.53042 11.9711 5.676 11.9711ZM11.3239 11.9711C10.4842 11.9711 9.79562 11.1872 9.79562 10.2326C9.79562 9.27802 10.4695 8.49276 11.3239 8.49276C12.1783 8.49276 12.867 9.27665 12.8523 10.2326C12.8523 11.1872 12.1783 11.9711 11.3239 11.9711Z" fill="white"/>
<path d="M28.28 15V3.64H32.312C33.5387 3.64 34.5627 3.896 35.384 4.408C36.2053 4.90933 36.8187 5.592 37.224 6.456C37.64 7.30933 37.848 8.25867 37.848 9.304C37.848 10.456 37.6187 11.4587 37.16 12.312C36.712 13.1653 36.072 13.8267 35.24 14.296C34.408 14.7653 33.432 15 32.312 15H28.28ZM36.024 9.304C36.024 8.504 35.8747 7.8 35.576 7.192C35.288 6.57333 34.8667 6.09333 34.312 5.752C33.768 5.4 33.1013 5.224 32.312 5.224H30.072V13.416H32.312C33.112 13.416 33.784 13.2347 34.328 12.872C34.8827 12.5093 35.304 12.0187 35.592 11.4C35.88 10.7813 36.024 10.0827 36.024 9.304ZM39.4935 15V6.632H41.2535V15H39.4935ZM39.4935 5.256V3.32H41.2535V5.256H39.4935ZM46.3445 15.16C45.6405 15.16 44.9738 15.048 44.3445 14.824C43.7152 14.5893 43.1765 14.2427 42.7285 13.784L43.3845 12.6C43.8645 13.0267 44.3445 13.336 44.8245 13.528C45.3152 13.72 45.8005 13.816 46.2805 13.816C46.7712 13.816 47.1712 13.7253 47.4805 13.544C47.7898 13.352 47.9445 13.0747 47.9445 12.712C47.9445 12.4453 47.8645 12.248 47.7045 12.12C47.5445 11.992 47.3098 11.88 47.0005 11.784C46.7018 11.688 46.3392 11.5813 45.9125 11.464C45.3152 11.2827 44.8138 11.096 44.4085 10.904C44.0032 10.7013 43.6992 10.456 43.4965 10.168C43.2938 9.88 43.1925 9.512 43.1925 9.064C43.1925 8.52 43.3312 8.056 43.6085 7.672C43.8858 7.288 44.2698 6.99467 44.7605 6.792C45.2618 6.58933 45.8378 6.488 46.4885 6.488C47.0965 6.488 47.6565 6.584 48.1685 6.776C48.6912 6.95733 49.1498 7.24533 49.5445 7.64L48.7925 8.808C48.4192 8.46667 48.0352 8.216 47.6405 8.056C47.2565 7.896 46.8405 7.816 46.3925 7.816C46.1365 7.816 45.8912 7.848 45.6565 7.912C45.4218 7.96533 45.2245 8.072 45.0645 8.232C44.9152 8.38133 44.8405 8.59467 44.8405 8.872C44.8405 9.096 44.9045 9.27733 45.0325 9.416C45.1605 9.55467 45.3525 9.672 45.6085 9.768C45.8645 9.864 46.1792 9.97067 46.5525 10.088C47.2032 10.28 47.7578 10.472 48.2165 10.664C48.6752 10.8453 49.0272 11.0853 49.2725 11.384C49.5285 11.672 49.6565 12.072 49.6565 12.584C49.6565 13.3947 49.3525 14.0293 48.7445 14.488C48.1472 14.936 47.3472 15.16 46.3445 15.16ZM55.0199 15.16C54.3692 15.16 53.7772 15.048 53.2439 14.824C52.7212 14.5893 52.2679 14.2693 51.8839 13.864C51.4999 13.4587 51.2012 12.9947 50.9879 12.472C50.7852 11.9493 50.6839 11.3947 50.6839 10.808C50.6839 10.0187 50.8599 9.29867 51.2119 8.648C51.5745 7.99733 52.0759 7.47467 52.7159 7.08C53.3665 6.68533 54.1345 6.488 55.0199 6.488C55.8732 6.488 56.6145 6.68 57.2439 7.064C57.8839 7.43733 58.3532 7.93867 58.6519 8.568L56.9399 9.112C56.7479 8.76 56.4759 8.488 56.1239 8.296C55.7825 8.09333 55.4039 7.992 54.9879 7.992C54.5185 7.992 54.0919 8.11467 53.7079 8.36C53.3345 8.59467 53.0359 8.92533 52.8119 9.352C52.5985 9.768 52.4919 10.2533 52.4919 10.808C52.4919 11.3413 52.6039 11.8267 52.8279 12.264C53.0519 12.6907 53.3505 13.032 53.7239 13.288C54.1079 13.5333 54.5345 13.656 55.0039 13.656C55.2919 13.656 55.5692 13.608 55.8359 13.512C56.1132 13.4053 56.3532 13.2667 56.5559 13.096C56.7585 12.9147 56.9025 12.7173 56.9879 12.504L58.7159 13.016C58.5345 13.432 58.2625 13.8 57.8999 14.12C57.5479 14.44 57.1265 14.696 56.6359 14.888C56.1559 15.0693 55.6172 15.16 55.0199 15.16ZM63.8473 15.16C63.1859 15.16 62.5939 15.048 62.0713 14.824C61.5486 14.5893 61.0953 14.2693 60.7113 13.864C60.3379 13.4587 60.0499 13 59.8473 12.488C59.6446 11.9653 59.5433 11.4107 59.5433 10.824C59.5433 10.2373 59.6446 9.68267 59.8473 9.16C60.0499 8.63733 60.3379 8.17867 60.7113 7.784C61.0953 7.37867 61.5486 7.064 62.0713 6.84C62.6046 6.60533 63.1966 6.488 63.8473 6.488C64.4979 6.488 65.0846 6.60533 65.6073 6.84C66.1406 7.064 66.5939 7.37867 66.9673 7.784C67.3513 8.17867 67.6446 8.63733 67.8472 9.16C68.0499 9.68267 68.1513 10.2373 68.1513 10.824C68.1513 11.4107 68.0499 11.9653 67.8472 12.488C67.6446 13 67.3513 13.4587 66.9673 13.864C66.5939 14.2693 66.1406 14.5893 65.6073 14.824C65.0846 15.048 64.4979 15.16 63.8473 15.16ZM61.3513 10.84C61.3513 11.3733 61.4633 11.8533 61.6873 12.28C61.9113 12.7067 62.2099 13.0427 62.5833 13.288C62.9566 13.5333 63.3779 13.656 63.8473 13.656C64.3059 13.656 64.7219 13.5333 65.0953 13.288C65.4793 13.032 65.7833 12.6907 66.0073 12.264C66.2313 11.8267 66.3433 11.3467 66.3433 10.824C66.3433 10.2907 66.2313 9.81067 66.0073 9.384C65.7833 8.95733 65.4793 8.62133 65.0953 8.376C64.7219 8.12 64.3059 7.992 63.8473 7.992C63.3779 7.992 62.9566 8.12 62.5833 8.376C62.2099 8.632 61.9113 8.97333 61.6873 9.4C61.4633 9.816 61.3513 10.296 61.3513 10.84ZM74.4163 8.152C73.7336 8.16267 73.1256 8.31733 72.5923 8.616C72.0696 8.91467 71.6963 9.336 71.4723 9.88V15H69.7122V6.632H71.3443V8.504C71.6323 7.928 72.0109 7.46933 72.4803 7.128C72.9496 6.776 73.4456 6.584 73.9683 6.552C74.0749 6.552 74.1603 6.552 74.2243 6.552C74.2989 6.552 74.3629 6.55733 74.4163 6.568V8.152ZM75.0436 10.824C75.0436 10.024 75.2036 9.29867 75.5236 8.648C75.8543 7.98667 76.3023 7.464 76.8676 7.08C77.433 6.68533 78.0836 6.488 78.8196 6.488C79.4596 6.488 80.0356 6.65333 80.5476 6.984C81.0703 7.31467 81.4756 7.72533 81.7636 8.216V3.32H83.5236V13.016C83.5236 13.2187 83.561 13.3627 83.6356 13.448C83.7103 13.5333 83.833 13.5813 84.0036 13.592V15C83.673 15.0533 83.417 15.08 83.2356 15.08C82.905 15.08 82.6223 14.984 82.3876 14.792C82.1636 14.6 82.0463 14.3707 82.0356 14.104L82.0196 13.48C81.6996 14.0133 81.2676 14.4293 80.7236 14.728C80.1796 15.016 79.6143 15.16 79.0276 15.16C78.4516 15.16 77.9183 15.048 77.4276 14.824C76.9476 14.6 76.5263 14.2853 76.1636 13.88C75.8116 13.4747 75.5343 13.0107 75.3316 12.488C75.1396 11.9653 75.0436 11.4107 75.0436 10.824ZM81.7636 11.992V9.8C81.6463 9.45867 81.4543 9.15467 81.1876 8.888C80.9316 8.61067 80.6383 8.392 80.3076 8.232C79.9876 8.072 79.6676 7.992 79.3476 7.992C78.9743 7.992 78.633 8.072 78.3236 8.232C78.025 8.392 77.7636 8.60533 77.5396 8.872C77.3263 9.13867 77.161 9.44267 77.0436 9.784C76.9263 10.1253 76.8676 10.4827 76.8676 10.856C76.8676 11.24 76.9316 11.6027 77.0596 11.944C77.1876 12.2747 77.369 12.5733 77.6036 12.84C77.849 13.096 78.1263 13.2987 78.4356 13.448C78.7556 13.5867 79.1023 13.656 79.4756 13.656C79.7103 13.656 79.945 13.6133 80.1796 13.528C80.425 13.4427 80.6543 13.3253 80.8676 13.176C81.0916 13.0267 81.2783 12.8507 81.4276 12.648C81.5876 12.4453 81.6996 12.2267 81.7636 11.992ZM96.6562 6.312C96.5496 6.19467 96.3949 6.072 96.1923 5.944C95.9896 5.80533 95.7496 5.67733 95.4723 5.56C95.1949 5.44267 94.8963 5.34667 94.5763 5.272C94.2563 5.19733 93.9256 5.16 93.5843 5.16C92.8376 5.16 92.2829 5.29867 91.9203 5.576C91.5576 5.85333 91.3763 6.23733 91.3763 6.728C91.3763 7.09067 91.4776 7.37867 91.6803 7.592C91.8829 7.79467 92.1923 7.96533 92.6083 8.104C93.0243 8.24267 93.5469 8.392 94.1763 8.552C94.9443 8.73333 95.6109 8.952 96.1763 9.208C96.7416 9.45333 97.1736 9.784 97.4722 10.2C97.7709 10.616 97.9203 11.1653 97.9203 11.848C97.9203 12.424 97.8136 12.92 97.6003 13.336C97.3869 13.752 97.0883 14.0933 96.7043 14.36C96.3203 14.616 95.8776 14.808 95.3763 14.936C94.8749 15.0533 94.3363 15.112 93.7603 15.112C93.1949 15.112 92.6296 15.0533 92.0643 14.936C91.5096 14.8187 90.9763 14.648 90.4643 14.424C89.9629 14.1893 89.4989 13.9067 89.0723 13.576L89.8883 12.04C90.0269 12.1787 90.2243 12.3333 90.4803 12.504C90.7469 12.664 91.0509 12.8187 91.3923 12.968C91.7443 13.1173 92.1229 13.2453 92.5283 13.352C92.9443 13.448 93.3656 13.496 93.7923 13.496C94.5069 13.496 95.0509 13.3733 95.4243 13.128C95.8083 12.872 96.0003 12.5093 96.0003 12.04C96.0003 11.656 95.8776 11.352 95.6323 11.128C95.3869 10.8933 95.0296 10.696 94.5603 10.536C94.0909 10.376 93.5309 10.216 92.8802 10.056C92.1336 9.85333 91.5096 9.63467 91.0082 9.4C90.5069 9.15467 90.1283 8.84533 89.8723 8.472C89.6269 8.088 89.5043 7.60267 89.5043 7.016C89.5043 6.26933 89.6856 5.64 90.0483 5.128C90.4109 4.60533 90.9016 4.216 91.5203 3.96C92.1496 3.69333 92.8536 3.56 93.6323 3.56C94.1443 3.56 94.6296 3.61867 95.0883 3.736C95.5469 3.84267 95.9736 3.992 96.3683 4.184C96.7736 4.376 97.1416 4.59467 97.4722 4.84L96.6562 6.312ZM103.286 15.16C102.635 15.16 102.043 15.048 101.51 14.824C100.987 14.5893 100.534 14.2747 100.15 13.88C99.7655 13.4747 99.4668 13.016 99.2535 12.504C99.0508 11.9813 98.9495 11.4267 98.9495 10.84C98.9495 10.0507 99.1308 9.33067 99.4935 8.68C99.8562 8.01867 100.363 7.49067 101.014 7.096C101.664 6.69067 102.427 6.488 103.302 6.488C104.176 6.488 104.928 6.69067 105.558 7.096C106.198 7.49067 106.694 8.01333 107.046 8.664C107.398 9.31467 107.574 10.0133 107.574 10.76C107.574 10.888 107.568 11.0107 107.558 11.128C107.547 11.2347 107.536 11.3253 107.526 11.4H100.822C100.854 11.8907 100.987 12.3227 101.222 12.696C101.467 13.0587 101.776 13.3467 102.15 13.56C102.523 13.7627 102.923 13.864 103.35 13.864C103.819 13.864 104.262 13.7467 104.678 13.512C105.104 13.2773 105.392 12.968 105.542 12.584L107.046 13.016C106.864 13.4213 106.587 13.7893 106.214 14.12C105.851 14.44 105.419 14.696 104.918 14.888C104.416 15.0693 103.872 15.16 103.286 15.16ZM100.774 10.232H105.83C105.798 9.752 105.659 9.33067 105.414 8.968C105.179 8.59467 104.875 8.30667 104.502 8.104C104.139 7.89067 103.734 7.784 103.286 7.784C102.848 7.784 102.443 7.89067 102.07 8.104C101.707 8.30667 101.408 8.59467 101.174 8.968C100.939 9.33067 100.806 9.752 100.774 10.232ZM113.713 8.152C113.03 8.16267 112.422 8.31733 111.889 8.616C111.366 8.91467 110.993 9.336 110.769 9.88V15H109.009V6.632H110.641V8.504C110.929 7.928 111.308 7.46933 111.777 7.128C112.246 6.776 112.742 6.584 113.265 6.552C113.372 6.552 113.457 6.552 113.521 6.552C113.596 6.552 113.66 6.55733 113.713 6.568V8.152ZM117.33 15L114.146 6.632H115.97L118.354 13.368L120.738 6.632H122.434L119.25 15H117.33ZM127.207 15.16C126.557 15.16 125.965 15.048 125.431 14.824C124.909 14.5893 124.455 14.2747 124.071 13.88C123.687 13.4747 123.389 13.016 123.175 12.504C122.973 11.9813 122.871 11.4267 122.871 10.84C122.871 10.0507 123.053 9.33067 123.415 8.68C123.778 8.01867 124.285 7.49067 124.935 7.096C125.586 6.69067 126.349 6.488 127.223 6.488C128.098 6.488 128.85 6.69067 129.479 7.096C130.119 7.49067 130.615 8.01333 130.967 8.664C131.319 9.31467 131.495 10.0133 131.495 10.76C131.495 10.888 131.49 11.0107 131.479 11.128C131.469 11.2347 131.458 11.3253 131.447 11.4H124.743C124.775 11.8907 124.909 12.3227 125.143 12.696C125.389 13.0587 125.698 13.3467 126.071 13.56C126.445 13.7627 126.845 13.864 127.271 13.864C127.741 13.864 128.183 13.7467 128.599 13.512C129.026 13.2773 129.314 12.968 129.463 12.584L130.967 13.016C130.786 13.4213 130.509 13.7893 130.135 14.12C129.773 14.44 129.341 14.696 128.839 14.888C128.338 15.0693 127.794 15.16 127.207 15.16ZM124.695 10.232H129.751C129.719 9.752 129.581 9.33067 129.335 8.968C129.101 8.59467 128.797 8.30667 128.423 8.104C128.061 7.89067 127.655 7.784 127.207 7.784C126.77 7.784 126.365 7.89067 125.991 8.104C125.629 8.30667 125.33 8.59467 125.095 8.968C124.861 9.33067 124.727 9.752 124.695 10.232ZM137.635 8.152C136.952 8.16267 136.344 8.31733 135.811 8.616C135.288 8.91467 134.915 9.336 134.691 9.88V15H132.931V6.632H134.563V8.504C134.851 7.928 135.23 7.46933 135.699 7.128C136.168 6.776 136.664 6.584 137.187 6.552C137.294 6.552 137.379 6.552 137.443 6.552C137.518 6.552 137.582 6.55733 137.635 6.568V8.152Z" fill="white"/>
</svg>
