<svg width="1345" height="33" viewBox="0 0 1345 33" fill="none" xmlns="http://www.w3.org/2000/svg">
<path d="M384.48 24.1444V26.8174H371.331V7.64735H384.237V10.3204H374.355V15.7744H382.914V18.2854H374.355V24.1444H384.48ZM408.717 26.8174H405.747V18.9064C405.747 17.5924 405.531 16.6294 405.099 16.0174C404.667 15.4054 404.037 15.0994 403.209 15.0994C402.381 15.0994 401.607 15.4144 400.887 16.0444C400.185 16.6564 399.69 17.4574 399.402 18.4474V26.8174H396.432V18.9064C396.432 17.5924 396.216 16.6294 395.784 16.0174C395.352 15.4054 394.731 15.0994 393.921 15.0994C393.093 15.0994 392.319 15.4054 391.599 16.0174C390.897 16.6294 390.393 17.4304 390.087 18.4204V26.8174H387.117V12.6964H389.817V15.5314C390.375 14.5414 391.104 13.7854 392.004 13.2634C392.922 12.7234 393.966 12.4534 395.136 12.4534C396.306 12.4534 397.224 12.7594 397.89 13.3714C398.574 13.9834 398.997 14.7484 399.159 15.6664C399.771 14.6224 400.518 13.8304 401.4 13.2904C402.3 12.7324 403.326 12.4534 404.478 12.4534C405.306 12.4534 405.999 12.6064 406.557 12.9124C407.115 13.2184 407.547 13.6414 407.853 14.1814C408.159 14.7034 408.375 15.3154 408.501 16.0174C408.645 16.7014 408.717 17.4304 408.717 18.2044V26.8174ZM420.158 27.0874C419.024 27.0874 418.025 26.8174 417.161 26.2774C416.297 25.7374 415.613 25.0354 415.109 24.1714V32.5684H412.139V12.6964H414.758V15.2344C415.298 14.3884 416 13.7134 416.864 13.2094C417.728 12.7054 418.691 12.4534 419.753 12.4534C420.725 12.4534 421.616 12.6514 422.426 13.0473C423.236 13.4254 423.938 13.9564 424.532 14.6404C425.126 15.3244 425.585 16.1074 425.909 16.9894C426.251 17.8534 426.422 18.7714 426.422 19.7434C426.422 21.0934 426.152 22.3264 425.612 23.4424C425.09 24.5584 424.352 25.4494 423.398 26.1154C422.462 26.7634 421.382 27.0874 420.158 27.0874ZM419.186 24.5494C419.816 24.5494 420.383 24.4144 420.887 24.1444C421.409 23.8744 421.85 23.5144 422.21 23.0644C422.588 22.6144 422.876 22.1014 423.074 21.5254C423.272 20.9494 423.371 20.3554 423.371 19.7434C423.371 19.0954 423.263 18.4834 423.047 17.9074C422.831 17.3314 422.516 16.8274 422.102 16.3954C421.706 15.9634 421.238 15.6214 420.698 15.3694C420.176 15.1174 419.6 14.9914 418.97 14.9914C418.592 14.9914 418.196 15.0634 417.782 15.2074C417.368 15.3514 416.981 15.5494 416.621 15.8014C416.261 16.0534 415.946 16.3504 415.676 16.6924C415.406 17.0344 415.217 17.3944 415.109 17.7724V21.4714C415.361 22.0474 415.694 22.5694 416.108 23.0374C416.522 23.4874 416.999 23.8564 417.539 24.1444C418.079 24.4144 418.628 24.5494 419.186 24.5494ZM435.438 27.0874C434.322 27.0874 433.323 26.8984 432.441 26.5204C431.559 26.1244 430.794 25.5844 430.146 24.9004C429.516 24.2164 429.03 23.4424 428.688 22.5784C428.346 21.6964 428.175 20.7604 428.175 19.7704C428.175 18.7804 428.346 17.8444 428.688 16.9624C429.03 16.0804 429.516 15.3064 430.146 14.6404C430.794 13.9564 431.559 13.4254 432.441 13.0473C433.341 12.6514 434.34 12.4534 435.438 12.4534C436.536 12.4534 437.526 12.6514 438.408 13.0473C439.308 13.4254 440.073 13.9564 440.703 14.6404C441.351 15.3064 441.846 16.0804 442.188 16.9624C442.53 17.8444 442.701 18.7804 442.701 19.7704C442.701 20.7604 442.53 21.6964 442.188 22.5784C441.846 23.4424 441.351 24.2164 440.703 24.9004C440.073 25.5844 439.308 26.1244 438.408 26.5204C437.526 26.8984 436.536 27.0874 435.438 27.0874ZM431.226 19.7974C431.226 20.6974 431.415 21.5074 431.793 22.2274C432.171 22.9474 432.675 23.5144 433.305 23.9284C433.935 24.3424 434.646 24.5494 435.438 24.5494C436.212 24.5494 436.914 24.3424 437.544 23.9284C438.192 23.4964 438.705 22.9204 439.083 22.2004C439.461 21.4624 439.65 20.6524 439.65 19.7704C439.65 18.8704 439.461 18.0604 439.083 17.3404C438.705 16.6204 438.192 16.0534 437.544 15.6394C436.914 15.2074 436.212 14.9914 435.438 14.9914C434.646 14.9914 433.935 15.2074 433.305 15.6394C432.675 16.0714 432.171 16.6474 431.793 17.3674C431.415 18.0694 431.226 18.8794 431.226 19.7974ZM462.465 12.6964H465.3L459.36 26.8174H456.822L454.284 20.4454L451.746 26.8174H449.208L443.241 12.6964H446.076L450.612 23.9284L452.61 18.7174L450.18 12.7234H452.691L454.284 17.1244L455.85 12.7234H458.361L455.958 18.7174L457.956 23.9284L462.465 12.6964ZM473.197 27.0874C472.099 27.0874 471.1 26.8984 470.2 26.5204C469.318 26.1244 468.553 25.5934 467.905 24.9274C467.257 24.2434 466.753 23.4694 466.393 22.6054C466.051 21.7234 465.88 20.7874 465.88 19.7974C465.88 18.4654 466.186 17.2504 466.798 16.1524C467.41 15.0364 468.265 14.1454 469.363 13.4794C470.461 12.7954 471.748 12.4534 473.224 12.4534C474.7 12.4534 475.969 12.7954 477.031 13.4794C478.111 14.1454 478.948 15.0274 479.542 16.1254C480.136 17.2234 480.433 18.4024 480.433 19.6624C480.433 19.8784 480.424 20.0854 480.406 20.2834C480.388 20.4634 480.37 20.6164 480.352 20.7424H469.039C469.093 21.5704 469.318 22.2994 469.714 22.9294C470.128 23.5414 470.65 24.0274 471.28 24.3874C471.91 24.7294 472.585 24.9004 473.305 24.9004C474.097 24.9004 474.844 24.7024 475.546 24.3064C476.266 23.9104 476.752 23.3884 477.004 22.7404L479.542 23.4694C479.236 24.1534 478.768 24.7744 478.138 25.3324C477.526 25.8724 476.797 26.3044 475.951 26.6284C475.105 26.9344 474.187 27.0874 473.197 27.0874ZM468.958 18.7714H477.49C477.436 17.9614 477.202 17.2504 476.788 16.6384C476.392 16.0084 475.879 15.5224 475.249 15.1804C474.637 14.8204 473.953 14.6404 473.197 14.6404C472.459 14.6404 471.775 14.8204 471.145 15.1804C470.533 15.5224 470.029 16.0084 469.633 16.6384C469.237 17.2504 469.012 17.9614 468.958 18.7714ZM490.794 15.2614C489.642 15.2794 488.616 15.5404 487.716 16.0444C486.834 16.5484 486.204 17.2594 485.826 18.1774V26.8174H482.856V12.6964H485.61V15.8554C486.096 14.8834 486.735 14.1094 487.527 13.5334C488.319 12.9394 489.156 12.6154 490.038 12.5614C490.218 12.5614 490.362 12.5614 490.47 12.5614C490.596 12.5614 490.704 12.5704 490.794 12.5884V15.2614ZM492.954 26.8174V12.6964H495.924V26.8174H492.954ZM492.954 10.3744V7.10735H495.924V10.3744H492.954ZM512.156 26.8174H509.186V18.9064C509.186 17.5924 508.97 16.6294 508.538 16.0174C508.124 15.4054 507.503 15.0994 506.675 15.0994C506.099 15.0994 505.523 15.2434 504.947 15.5314C504.389 15.8194 503.885 16.2154 503.435 16.7194C502.985 17.2054 502.661 17.7724 502.463 18.4204V26.8174H499.493V12.6964H502.193V15.5314C502.553 14.9014 503.021 14.3614 503.597 13.9114C504.191 13.4434 504.857 13.0834 505.595 12.8314C506.333 12.5794 507.116 12.4534 507.944 12.4534C508.79 12.4534 509.483 12.6064 510.023 12.9124C510.581 13.2184 511.013 13.6414 511.319 14.1814C511.643 14.7034 511.859 15.3154 511.967 16.0174C512.093 16.7014 512.156 17.4304 512.156 18.2044V26.8174ZM521.193 26.9524C520.239 26.9524 519.366 26.7634 518.574 26.3854C517.782 25.9894 517.098 25.4584 516.522 24.7924C515.964 24.1264 515.523 23.3614 515.199 22.4974C514.893 21.6334 514.74 20.7244 514.74 19.7704C514.74 18.7624 514.902 17.8174 515.226 16.9354C515.55 16.0534 516 15.2794 516.576 14.6134C517.17 13.9294 517.863 13.3984 518.655 13.0204C519.447 12.6424 520.329 12.4534 521.301 12.4534C522.435 12.4534 523.425 12.7234 524.271 13.2634C525.135 13.8034 525.846 14.5054 526.404 15.3694V12.6964H529.023V26.4124C529.023 27.7804 528.69 28.9414 528.024 29.8954C527.376 30.8494 526.485 31.5784 525.351 32.0824C524.217 32.5864 522.939 32.8384 521.517 32.8384C519.951 32.8384 518.655 32.5684 517.629 32.0284C516.603 31.4884 515.73 30.7504 515.01 29.8144L516.684 28.2484C517.224 29.0044 517.917 29.5804 518.763 29.9764C519.627 30.3724 520.545 30.5704 521.517 30.5704C522.327 30.5704 523.074 30.4174 523.758 30.1114C524.46 29.8234 525.018 29.3644 525.432 28.7344C525.846 28.1224 526.053 27.3484 526.053 26.4124V24.2524C525.549 25.0984 524.856 25.7644 523.974 26.2504C523.092 26.7184 522.165 26.9524 521.193 26.9524ZM522.165 24.5494C522.615 24.5494 523.047 24.4774 523.461 24.3334C523.875 24.1714 524.253 23.9644 524.595 23.7124C524.955 23.4424 525.261 23.1454 525.513 22.8214C525.765 22.4794 525.945 22.1194 526.053 21.7414V18.0424C525.819 17.4304 525.486 16.8994 525.054 16.4494C524.622 15.9814 524.136 15.6214 523.596 15.3694C523.056 15.1174 522.507 14.9914 521.949 14.9914C521.301 14.9914 520.716 15.1354 520.194 15.4234C519.69 15.6934 519.258 16.0624 518.898 16.5304C518.538 16.9804 518.259 17.4934 518.061 18.0694C517.863 18.6454 517.764 19.2394 517.764 19.8514C517.764 20.4994 517.872 21.1024 518.088 21.6604C518.322 22.2184 518.637 22.7224 519.033 23.1724C519.429 23.6044 519.897 23.9464 520.437 24.1984C520.977 24.4324 521.553 24.5494 522.165 24.5494ZM693.857 26.9524C692.471 26.9524 691.22 26.6824 690.104 26.1424C688.988 25.6024 688.025 24.8734 687.215 23.9554C686.405 23.0194 685.775 21.9754 685.325 20.8234C684.893 19.6534 684.677 18.4564 684.677 17.2324C684.677 15.9544 684.911 14.7394 685.379 13.5874C685.847 12.4174 686.495 11.3824 687.323 10.4824C688.151 9.56435 689.123 8.84435 690.239 8.32235C691.373 7.78235 692.597 7.51235 693.911 7.51235C695.279 7.51235 696.521 7.79135 697.637 8.34935C698.771 8.90735 699.734 9.65435 700.526 10.5904C701.336 11.5264 701.957 12.5704 702.389 13.7224C702.839 14.8744 703.064 16.0534 703.064 17.2594C703.064 18.5374 702.83 19.7614 702.362 20.9314C701.912 22.0834 701.273 23.1184 700.445 24.0364C699.617 24.9364 698.636 25.6474 697.502 26.1694C696.386 26.6914 695.171 26.9524 693.857 26.9524ZM687.755 17.2324C687.755 18.1324 687.899 19.0054 688.187 19.8514C688.475 20.6974 688.88 21.4534 689.402 22.1194C689.942 22.7674 690.59 23.2804 691.346 23.6584C692.102 24.0364 692.948 24.2254 693.884 24.2254C694.856 24.2254 695.72 24.0274 696.476 23.6314C697.232 23.2354 697.862 22.7044 698.366 22.0384C698.888 21.3544 699.284 20.5984 699.554 19.7704C699.824 18.9244 699.959 18.0784 699.959 17.2324C699.959 16.3324 699.815 15.4684 699.527 14.6404C699.257 13.7944 698.852 13.0474 698.312 12.3994C697.772 11.7334 697.124 11.2114 696.368 10.8334C695.63 10.4554 694.802 10.2664 693.884 10.2664C692.912 10.2664 692.048 10.4644 691.292 10.8604C690.536 11.2564 689.897 11.7874 689.375 12.4534C688.853 13.1194 688.448 13.8664 688.16 14.6944C687.89 15.5224 687.755 16.3684 687.755 17.2324ZM718.348 26.8174H715.378V18.9064C715.378 17.5924 715.162 16.6294 714.73 16.0174C714.316 15.4054 713.695 15.0994 712.867 15.0994C712.291 15.0994 711.715 15.2434 711.139 15.5314C710.581 15.8194 710.077 16.2154 709.627 16.7194C709.177 17.2054 708.853 17.7724 708.655 18.4204V26.8174H705.685V12.6964H708.385V15.5314C708.745 14.9014 709.213 14.3614 709.789 13.9114C710.383 13.4434 711.049 13.0834 711.787 12.8314C712.525 12.5794 713.308 12.4534 714.136 12.4534C714.982 12.4534 715.675 12.6064 716.215 12.9124C716.773 13.2184 717.205 13.6414 717.511 14.1814C717.835 14.7034 718.051 15.3154 718.159 16.0174C718.285 16.7014 718.348 17.4304 718.348 18.2044V26.8174ZM728.194 27.0874C727.096 27.0874 726.097 26.8984 725.197 26.5204C724.315 26.1244 723.55 25.5934 722.902 24.9274C722.254 24.2434 721.75 23.4694 721.39 22.6054C721.048 21.7234 720.877 20.7874 720.877 19.7974C720.877 18.4654 721.183 17.2504 721.795 16.1524C722.407 15.0364 723.262 14.1454 724.36 13.4794C725.458 12.7954 726.745 12.4534 728.221 12.4534C729.697 12.4534 730.966 12.7954 732.028 13.4794C733.108 14.1454 733.945 15.0274 734.539 16.1254C735.133 17.2234 735.43 18.4024 735.43 19.6624C735.43 19.8784 735.421 20.0854 735.403 20.2834C735.385 20.4634 735.367 20.6164 735.349 20.7424H724.036C724.09 21.5704 724.315 22.2994 724.711 22.9294C725.125 23.5414 725.647 24.0274 726.277 24.3874C726.907 24.7294 727.582 24.9004 728.302 24.9004C729.094 24.9004 729.841 24.7024 730.543 24.3064C731.263 23.9104 731.749 23.3884 732.001 22.7404L734.539 23.4694C734.233 24.1534 733.765 24.7744 733.135 25.3324C732.523 25.8724 731.794 26.3044 730.948 26.6284C730.102 26.9344 729.184 27.0874 728.194 27.0874ZM723.955 18.7714H732.487C732.433 17.9614 732.199 17.2504 731.785 16.6384C731.389 16.0084 730.876 15.5224 730.246 15.1804C729.634 14.8204 728.95 14.6404 728.194 14.6404C727.456 14.6404 726.772 14.8204 726.142 15.1804C725.53 15.5224 725.026 16.0084 724.63 16.6384C724.234 17.2504 724.009 17.9614 723.955 18.7714ZM892.294 7.64735V26.8174H889.243V18.3664H879.577V26.8174H876.553V7.64735H879.577V15.6664H889.243V7.64735H892.294ZM895.056 22.6864C895.056 21.7864 895.308 21.0034 895.812 20.3374C896.334 19.6534 897.045 19.1314 897.945 18.7714C898.845 18.3934 899.889 18.2044 901.077 18.2044C901.707 18.2044 902.346 18.2494 902.994 18.3394C903.66 18.4294 904.245 18.5734 904.749 18.7714V17.8804C904.749 16.8904 904.452 16.1164 903.858 15.5584C903.264 15.0004 902.409 14.7214 901.293 14.7214C900.501 14.7214 899.754 14.8654 899.052 15.1534C898.35 15.4234 897.603 15.8104 896.811 16.3144L895.812 14.3164C896.748 13.6864 897.684 13.2184 898.62 12.9124C899.574 12.6064 900.573 12.4534 901.617 12.4534C903.507 12.4534 904.992 12.9574 906.072 13.9654C907.17 14.9554 907.719 16.3684 907.719 18.2044V23.4694C907.719 23.8114 907.773 24.0544 907.881 24.1984C908.007 24.3424 908.214 24.4234 908.502 24.4414V26.8174C908.232 26.8714 907.989 26.9074 907.773 26.9254C907.557 26.9434 907.377 26.9524 907.233 26.9524C906.603 26.9524 906.126 26.7994 905.802 26.4934C905.478 26.1874 905.289 25.8274 905.235 25.4134L905.154 24.6034C904.542 25.3954 903.759 26.0074 902.805 26.4394C901.851 26.8714 900.888 27.0874 899.916 27.0874C898.98 27.0874 898.143 26.8984 897.405 26.5204C896.667 26.1244 896.091 25.5934 895.677 24.9274C895.263 24.2614 895.056 23.5144 895.056 22.6864ZM904.047 23.5504C904.263 23.3164 904.434 23.0824 904.56 22.8484C904.686 22.6144 904.749 22.4074 904.749 22.2274V20.6074C904.245 20.4094 903.714 20.2654 903.156 20.1754C902.598 20.0674 902.049 20.0134 901.509 20.0134C900.429 20.0134 899.547 20.2294 898.863 20.6614C898.197 21.0934 897.864 21.6874 897.864 22.4434C897.864 22.8574 897.972 23.2534 898.188 23.6314C898.422 24.0094 898.746 24.3154 899.16 24.5494C899.592 24.7834 900.123 24.9004 900.753 24.9004C901.401 24.9004 902.022 24.7744 902.616 24.5224C903.21 24.2704 903.687 23.9464 904.047 23.5504ZM917.722 27.0874C916.624 27.0874 915.625 26.8984 914.725 26.5204C913.843 26.1244 913.078 25.5844 912.43 24.9004C911.782 24.2164 911.278 23.4334 910.918 22.5514C910.576 21.6694 910.405 20.7334 910.405 19.7434C910.405 18.4114 910.702 17.1964 911.296 16.0984C911.908 15.0004 912.754 14.1184 913.834 13.4524C914.932 12.7864 916.228 12.4534 917.722 12.4534C919.162 12.4534 920.413 12.7774 921.475 13.4254C922.555 14.0554 923.347 14.9014 923.851 15.9634L920.962 16.8814C920.638 16.2874 920.179 15.8284 919.585 15.5044C919.009 15.1624 918.37 14.9914 917.668 14.9914C916.876 14.9914 916.156 15.1984 915.508 15.6124C914.878 16.0084 914.374 16.5664 913.996 17.2864C913.636 17.9884 913.456 18.8074 913.456 19.7434C913.456 20.6434 913.645 21.4624 914.023 22.2004C914.401 22.9204 914.905 23.4964 915.535 23.9284C916.183 24.3424 916.903 24.5494 917.695 24.5494C918.181 24.5494 918.649 24.4684 919.099 24.3064C919.567 24.1264 919.972 23.8924 920.314 23.6044C920.656 23.2984 920.899 22.9654 921.043 22.6054L923.959 23.4694C923.653 24.1714 923.194 24.7924 922.582 25.3324C921.988 25.8724 921.277 26.3044 920.449 26.6284C919.639 26.9344 918.73 27.0874 917.722 27.0874ZM936.233 26.8174L931.697 20.3104L929.375 22.5244V26.8174H926.405V7.10735H929.375V19.5274L935.909 12.7234H939.095L933.614 18.6364L939.392 26.8174H936.233ZM978.561 22.6864C978.561 21.7864 978.813 21.0034 979.317 20.3374C979.839 19.6534 980.55 19.1314 981.45 18.7714C982.35 18.3934 983.394 18.2044 984.582 18.2044C985.212 18.2044 985.851 18.2494 986.499 18.3394C987.165 18.4294 987.75 18.5734 988.254 18.7714V17.8804C988.254 16.8904 987.957 16.1164 987.363 15.5584C986.769 15.0004 985.914 14.7214 984.798 14.7214C984.006 14.7214 983.259 14.8654 982.557 15.1534C981.855 15.4234 981.108 15.8104 980.316 16.3144L979.317 14.3164C980.253 13.6864 981.189 13.2184 982.125 12.9124C983.079 12.6064 984.078 12.4534 985.122 12.4534C987.012 12.4534 988.497 12.9574 989.577 13.9654C990.675 14.9554 991.224 16.3684 991.224 18.2044V23.4694C991.224 23.8114 991.278 24.0544 991.386 24.1984C991.512 24.3424 991.719 24.4234 992.007 24.4414V26.8174C991.737 26.8714 991.494 26.9074 991.278 26.9254C991.062 26.9434 990.882 26.9524 990.738 26.9524C990.108 26.9524 989.631 26.7994 989.307 26.4934C988.983 26.1874 988.794 25.8274 988.74 25.4134L988.659 24.6034C988.047 25.3954 987.264 26.0074 986.31 26.4394C985.356 26.8714 984.393 27.0874 983.421 27.0874C982.485 27.0874 981.648 26.8984 980.91 26.5204C980.172 26.1244 979.596 25.5934 979.182 24.9274C978.768 24.2614 978.561 23.5144 978.561 22.6864ZM987.552 23.5504C987.768 23.3164 987.939 23.0824 988.065 22.8484C988.191 22.6144 988.254 22.4074 988.254 22.2274V20.6074C987.75 20.4094 987.219 20.2654 986.661 20.1754C986.103 20.0674 985.554 20.0134 985.014 20.0134C983.934 20.0134 983.052 20.2294 982.368 20.6614C981.702 21.0934 981.369 21.6874 981.369 22.4434C981.369 22.8574 981.477 23.2534 981.693 23.6314C981.927 24.0094 982.251 24.3154 982.665 24.5494C983.097 24.7834 983.628 24.9004 984.258 24.9004C984.906 24.9004 985.527 24.7744 986.121 24.5224C986.715 24.2704 987.192 23.9464 987.552 23.5504Z" fill="#FCF961"/>
<path d="M539.633 26.8174V7.64735H542.657V26.8174H539.633ZM559.275 26.8174H556.305V18.9064C556.305 17.5924 556.089 16.6294 555.657 16.0174C555.243 15.4054 554.622 15.0994 553.794 15.0994C553.218 15.0994 552.642 15.2434 552.066 15.5314C551.508 15.8194 551.004 16.2154 550.554 16.7194C550.104 17.2054 549.78 17.7724 549.582 18.4204V26.8174H546.612V12.6964H549.312V15.5314C549.672 14.9014 550.14 14.3614 550.716 13.9114C551.31 13.4434 551.976 13.0834 552.714 12.8314C553.452 12.5794 554.235 12.4534 555.063 12.4534C555.909 12.4534 556.602 12.6064 557.142 12.9124C557.7 13.2184 558.132 13.6414 558.438 14.1814C558.762 14.7034 558.978 15.3154 559.086 16.0174C559.212 16.7014 559.275 17.4304 559.275 18.2044V26.8174ZM575.385 26.8174H572.415V18.9064C572.415 17.5924 572.199 16.6294 571.767 16.0174C571.353 15.4054 570.732 15.0994 569.904 15.0994C569.328 15.0994 568.752 15.2434 568.176 15.5314C567.618 15.8194 567.114 16.2154 566.664 16.7194C566.214 17.2054 565.89 17.7724 565.692 18.4204V26.8174H562.722V12.6964H565.422V15.5314C565.782 14.9014 566.25 14.3614 566.826 13.9114C567.42 13.4434 568.086 13.0834 568.824 12.8314C569.562 12.5794 570.345 12.4534 571.173 12.4534C572.019 12.4534 572.712 12.6064 573.252 12.9124C573.81 13.2184 574.242 13.6414 574.548 14.1814C574.872 14.7034 575.088 15.3154 575.196 16.0174C575.322 16.7014 575.385 17.4304 575.385 18.2044V26.8174ZM585.177 27.0874C584.061 27.0874 583.062 26.8984 582.18 26.5204C581.298 26.1244 580.533 25.5844 579.885 24.9004C579.255 24.2164 578.769 23.4424 578.427 22.5784C578.085 21.6964 577.914 20.7604 577.914 19.7704C577.914 18.7804 578.085 17.8444 578.427 16.9624C578.769 16.0804 579.255 15.3064 579.885 14.6404C580.533 13.9564 581.298 13.4254 582.18 13.0473C583.08 12.6514 584.079 12.4534 585.177 12.4534C586.275 12.4534 587.265 12.6514 588.147 13.0473C589.047 13.4254 589.812 13.9564 590.442 14.6404C591.09 15.3064 591.585 16.0804 591.927 16.9624C592.269 17.8444 592.44 18.7804 592.44 19.7704C592.44 20.7604 592.269 21.6964 591.927 22.5784C591.585 23.4424 591.09 24.2164 590.442 24.9004C589.812 25.5844 589.047 26.1244 588.147 26.5204C587.265 26.8984 586.275 27.0874 585.177 27.0874ZM580.965 19.7974C580.965 20.6974 581.154 21.5074 581.532 22.2274C581.91 22.9474 582.414 23.5144 583.044 23.9284C583.674 24.3424 584.385 24.5494 585.177 24.5494C585.951 24.5494 586.653 24.3424 587.283 23.9284C587.931 23.4964 588.444 22.9204 588.822 22.2004C589.2 21.4624 589.389 20.6524 589.389 19.7704C589.389 18.8704 589.2 18.0604 588.822 17.3404C588.444 16.6204 587.931 16.0534 587.283 15.6394C586.653 15.2074 585.951 14.9914 585.177 14.9914C584.385 14.9914 583.674 15.2074 583.044 15.6394C582.414 16.0714 581.91 16.6474 581.532 17.3674C581.154 18.0694 580.965 18.8794 580.965 19.7974ZM598.542 26.8174L593.169 12.6964H596.247L600.27 24.0634L604.293 12.6964H607.155L601.782 26.8174H598.542ZM607.918 22.6864C607.918 21.7864 608.17 21.0034 608.674 20.3374C609.196 19.6534 609.907 19.1314 610.807 18.7714C611.707 18.3934 612.751 18.2044 613.939 18.2044C614.569 18.2044 615.208 18.2494 615.856 18.3394C616.522 18.4294 617.107 18.5734 617.611 18.7714V17.8804C617.611 16.8904 617.314 16.1164 616.72 15.5584C616.126 15.0004 615.271 14.7214 614.155 14.7214C613.363 14.7214 612.616 14.8654 611.914 15.1534C611.212 15.4234 610.465 15.8104 609.673 16.3144L608.674 14.3164C609.61 13.6864 610.546 13.2184 611.482 12.9124C612.436 12.6064 613.435 12.4534 614.479 12.4534C616.369 12.4534 617.854 12.9574 618.934 13.9654C620.032 14.9554 620.581 16.3684 620.581 18.2044V23.4694C620.581 23.8114 620.635 24.0544 620.743 24.1984C620.869 24.3424 621.076 24.4234 621.364 24.4414V26.8174C621.094 26.8714 620.851 26.9074 620.635 26.9254C620.419 26.9434 620.239 26.9524 620.095 26.9524C619.465 26.9524 618.988 26.7994 618.664 26.4934C618.34 26.1874 618.151 25.8274 618.097 25.4134L618.016 24.6034C617.404 25.3954 616.621 26.0074 615.667 26.4394C614.713 26.8714 613.75 27.0874 612.778 27.0874C611.842 27.0874 611.005 26.8984 610.267 26.5204C609.529 26.1244 608.953 25.5934 608.539 24.9274C608.125 24.2614 607.918 23.5144 607.918 22.6864ZM616.909 23.5504C617.125 23.3164 617.296 23.0824 617.422 22.8484C617.548 22.6144 617.611 22.4074 617.611 22.2274V20.6074C617.107 20.4094 616.576 20.2654 616.018 20.1754C615.46 20.0674 614.911 20.0134 614.371 20.0134C613.291 20.0134 612.409 20.2294 611.725 20.6614C611.059 21.0934 610.726 21.6874 610.726 22.4434C610.726 22.8574 610.834 23.2534 611.05 23.6314C611.284 24.0094 611.608 24.3154 612.022 24.5494C612.454 24.7834 612.985 24.9004 613.615 24.9004C614.263 24.9004 614.884 24.7744 615.478 24.5224C616.072 24.2704 616.549 23.9464 616.909 23.5504ZM631.935 26.0884C631.683 26.2144 631.368 26.3494 630.99 26.4934C630.612 26.6374 630.18 26.7634 629.694 26.8714C629.226 26.9794 628.74 27.0334 628.236 27.0334C627.624 27.0334 627.057 26.9254 626.535 26.7094C626.013 26.4934 625.59 26.1514 625.266 25.6834C624.96 25.1974 624.807 24.5764 624.807 23.8204V14.9914H622.944V12.6964H624.807V8.05235H627.777V12.6964H630.855V14.9914H627.777V22.8754C627.813 23.3614 627.966 23.7214 628.236 23.9554C628.524 24.1894 628.875 24.3064 629.289 24.3064C629.703 24.3064 630.099 24.2344 630.477 24.0904C630.855 23.9464 631.134 23.8294 631.314 23.7394L631.935 26.0884ZM633.993 26.8174V12.6964H636.963V26.8174H633.993ZM633.993 10.3744V7.10735H636.963V10.3744H633.993ZM646.877 27.0874C645.761 27.0874 644.762 26.8984 643.88 26.5204C642.998 26.1244 642.233 25.5844 641.585 24.9004C640.955 24.2164 640.469 23.4424 640.127 22.5784C639.785 21.6964 639.614 20.7604 639.614 19.7704C639.614 18.7804 639.785 17.8444 640.127 16.9624C640.469 16.0804 640.955 15.3064 641.585 14.6404C642.233 13.9564 642.998 13.4254 643.88 13.0473C644.78 12.6514 645.779 12.4534 646.877 12.4534C647.975 12.4534 648.965 12.6514 649.847 13.0473C650.747 13.4254 651.512 13.9564 652.142 14.6404C652.79 15.3064 653.285 16.0804 653.627 16.9624C653.969 17.8444 654.14 18.7804 654.14 19.7704C654.14 20.7604 653.969 21.6964 653.627 22.5784C653.285 23.4424 652.79 24.2164 652.142 24.9004C651.512 25.5844 650.747 26.1244 649.847 26.5204C648.965 26.8984 647.975 27.0874 646.877 27.0874ZM642.665 19.7974C642.665 20.6974 642.854 21.5074 643.232 22.2274C643.61 22.9474 644.114 23.5144 644.744 23.9284C645.374 24.3424 646.085 24.5494 646.877 24.5494C647.651 24.5494 648.353 24.3424 648.983 23.9284C649.631 23.4964 650.144 22.9204 650.522 22.2004C650.9 21.4624 651.089 20.6524 651.089 19.7704C651.089 18.8704 650.9 18.0604 650.522 17.3404C650.144 16.6204 649.631 16.0534 648.983 15.6394C648.353 15.2074 647.651 14.9914 646.877 14.9914C646.085 14.9914 645.374 15.2074 644.744 15.6394C644.114 16.0714 643.61 16.6474 643.232 17.3674C642.854 18.0694 642.665 18.8794 642.665 19.7974ZM669.437 26.8174H666.467V18.9064C666.467 17.5924 666.251 16.6294 665.819 16.0174C665.405 15.4054 664.784 15.0994 663.956 15.0994C663.38 15.0994 662.804 15.2434 662.228 15.5314C661.67 15.8194 661.166 16.2154 660.716 16.7194C660.266 17.2054 659.942 17.7724 659.744 18.4204V26.8174H656.774V12.6964H659.474V15.5314C659.834 14.9014 660.302 14.3614 660.878 13.9114C661.472 13.4434 662.138 13.0834 662.876 12.8314C663.614 12.5794 664.397 12.4534 665.225 12.4534C666.071 12.4534 666.764 12.6064 667.304 12.9124C667.862 13.2184 668.294 13.6414 668.6 14.1814C668.924 14.7034 669.14 15.3154 669.248 16.0174C669.374 16.7014 669.437 17.4304 669.437 18.2044V26.8174ZM673.073 29.4364L673.721 26.6554H672.749V23.3614H675.422V26.6554L674.477 29.4364H673.073ZM749.593 7.64735H752.455L759.907 26.8174H756.721L754.696 21.6064H747.298L745.3 26.8174H742.087L749.593 7.64735ZM754.102 19.3654L751.024 10.9684L747.838 19.3654H754.102ZM778.528 12.6964H781.363L775.423 26.8174H772.885L770.347 20.4454L767.809 26.8174H765.271L759.304 12.6964H762.139L766.675 23.9284L768.673 18.7174L766.243 12.7234H768.754L770.347 17.1244L771.913 12.7234H774.424L772.021 18.7174L774.019 23.9284L778.528 12.6964ZM789.261 27.0874C788.163 27.0874 787.164 26.8984 786.264 26.5204C785.382 26.1244 784.617 25.5934 783.969 24.9274C783.321 24.2434 782.817 23.4694 782.457 22.6054C782.115 21.7234 781.944 20.7874 781.944 19.7974C781.944 18.4654 782.25 17.2504 782.862 16.1524C783.474 15.0364 784.329 14.1454 785.427 13.4794C786.525 12.7954 787.812 12.4534 789.288 12.4534C790.764 12.4534 792.033 12.7954 793.095 13.4794C794.175 14.1454 795.012 15.0274 795.606 16.1254C796.2 17.2234 796.497 18.4024 796.497 19.6624C796.497 19.8784 796.488 20.0854 796.47 20.2834C796.452 20.4634 796.434 20.6164 796.416 20.7424H785.103C785.157 21.5704 785.382 22.2994 785.778 22.9294C786.192 23.5414 786.714 24.0274 787.344 24.3874C787.974 24.7294 788.649 24.9004 789.369 24.9004C790.161 24.9004 790.908 24.7024 791.61 24.3064C792.33 23.9104 792.816 23.3884 793.068 22.7404L795.606 23.4694C795.3 24.1534 794.832 24.7744 794.202 25.3324C793.59 25.8724 792.861 26.3044 792.015 26.6284C791.169 26.9344 790.251 27.0874 789.261 27.0874ZM785.022 18.7714H793.554C793.5 17.9614 793.266 17.2504 792.852 16.6384C792.456 16.0084 791.943 15.5224 791.313 15.1804C790.701 14.8204 790.017 14.6404 789.261 14.6404C788.523 14.6404 787.839 14.8204 787.209 15.1804C786.597 15.5224 786.093 16.0084 785.697 16.6384C785.301 17.2504 785.076 17.9614 785.022 18.7714ZM803.941 27.0874C802.753 27.0874 801.628 26.8984 800.566 26.5204C799.504 26.1244 798.595 25.5394 797.839 24.7654L798.946 22.7674C799.756 23.4874 800.566 24.0094 801.376 24.3334C802.204 24.6574 803.023 24.8194 803.833 24.8194C804.661 24.8194 805.336 24.6664 805.858 24.3604C806.38 24.0364 806.641 23.5684 806.641 22.9564C806.641 22.5064 806.506 22.1734 806.236 21.9574C805.966 21.7414 805.57 21.5524 805.048 21.3904C804.544 21.2284 803.932 21.0484 803.212 20.8504C802.204 20.5444 801.358 20.2294 800.674 19.9054C799.99 19.5634 799.477 19.1494 799.135 18.6634C798.793 18.1774 798.622 17.5564 798.622 16.8004C798.622 15.8824 798.856 15.0994 799.324 14.4514C799.792 13.8034 800.44 13.3084 801.268 12.9664C802.114 12.6244 803.086 12.4534 804.184 12.4534C805.21 12.4534 806.155 12.6154 807.019 12.9394C807.901 13.2454 808.675 13.7314 809.341 14.3974L808.072 16.3684C807.442 15.7924 806.794 15.3694 806.128 15.0994C805.48 14.8294 804.778 14.6944 804.022 14.6944C803.59 14.6944 803.176 14.7484 802.78 14.8564C802.384 14.9464 802.051 15.1264 801.781 15.3964C801.529 15.6484 801.403 16.0084 801.403 16.4764C801.403 16.8544 801.511 17.1604 801.727 17.3944C801.943 17.6284 802.267 17.8264 802.699 17.9884C803.131 18.1504 803.662 18.3304 804.292 18.5284C805.39 18.8524 806.326 19.1764 807.1 19.5004C807.874 19.8064 808.468 20.2114 808.882 20.7154C809.314 21.2014 809.53 21.8764 809.53 22.7404C809.53 24.1084 809.017 25.1794 807.991 25.9534C806.983 26.7094 805.633 27.0874 803.941 27.0874ZM818.527 27.0874C817.411 27.0874 816.412 26.8984 815.53 26.5204C814.648 26.1244 813.883 25.5844 813.235 24.9004C812.605 24.2164 812.119 23.4424 811.777 22.5784C811.435 21.6964 811.264 20.7604 811.264 19.7704C811.264 18.7804 811.435 17.8444 811.777 16.9624C812.119 16.0804 812.605 15.3064 813.235 14.6404C813.883 13.9564 814.648 13.4254 815.53 13.0473C816.43 12.6514 817.429 12.4534 818.527 12.4534C819.625 12.4534 820.615 12.6514 821.497 13.0473C822.397 13.4254 823.162 13.9564 823.792 14.6404C824.44 15.3064 824.935 16.0804 825.277 16.9624C825.619 17.8444 825.79 18.7804 825.79 19.7704C825.79 20.7604 825.619 21.6964 825.277 22.5784C824.935 23.4424 824.44 24.2164 823.792 24.9004C823.162 25.5844 822.397 26.1244 821.497 26.5204C820.615 26.8984 819.625 27.0874 818.527 27.0874ZM814.315 19.7974C814.315 20.6974 814.504 21.5074 814.882 22.2274C815.26 22.9474 815.764 23.5144 816.394 23.9284C817.024 24.3424 817.735 24.5494 818.527 24.5494C819.301 24.5494 820.003 24.3424 820.633 23.9284C821.281 23.4964 821.794 22.9204 822.172 22.2004C822.55 21.4624 822.739 20.6524 822.739 19.7704C822.739 18.8704 822.55 18.0604 822.172 17.3404C821.794 16.6204 821.281 16.0534 820.633 15.6394C820.003 15.2074 819.301 14.9914 818.527 14.9914C817.735 14.9914 817.024 15.2074 816.394 15.6394C815.764 16.0714 815.26 16.6474 814.882 17.3674C814.504 18.0694 814.315 18.8794 814.315 19.7974ZM850.024 26.8174H847.054V18.9064C847.054 17.5924 846.838 16.6294 846.406 16.0174C845.974 15.4054 845.344 15.0994 844.516 15.0994C843.688 15.0994 842.914 15.4144 842.194 16.0444C841.492 16.6564 840.997 17.4574 840.709 18.4474V26.8174H837.739V18.9064C837.739 17.5924 837.523 16.6294 837.091 16.0174C836.659 15.4054 836.038 15.0994 835.228 15.0994C834.4 15.0994 833.626 15.4054 832.906 16.0174C832.204 16.6294 831.7 17.4304 831.394 18.4204V26.8174H828.424V12.6964H831.124V15.5314C831.682 14.5414 832.411 13.7854 833.311 13.2634C834.229 12.7234 835.273 12.4534 836.443 12.4534C837.613 12.4534 838.531 12.7594 839.197 13.3714C839.881 13.9834 840.304 14.7484 840.466 15.6664C841.078 14.6224 841.825 13.8304 842.707 13.2904C843.607 12.7324 844.633 12.4534 845.785 12.4534C846.613 12.4534 847.306 12.6064 847.864 12.9124C848.422 13.2184 848.854 13.6414 849.16 14.1814C849.466 14.7034 849.682 15.3154 849.808 16.0174C849.952 16.7014 850.024 17.4304 850.024 18.2044V26.8174ZM859.846 27.0874C858.748 27.0874 857.749 26.8984 856.849 26.5204C855.967 26.1244 855.202 25.5934 854.554 24.9274C853.906 24.2434 853.402 23.4694 853.042 22.6054C852.7 21.7234 852.529 20.7874 852.529 19.7974C852.529 18.4654 852.835 17.2504 853.447 16.1524C854.059 15.0364 854.914 14.1454 856.012 13.4794C857.11 12.7954 858.397 12.4534 859.873 12.4534C861.349 12.4534 862.618 12.7954 863.68 13.4794C864.76 14.1454 865.597 15.0274 866.191 16.1254C866.785 17.2234 867.082 18.4024 867.082 19.6624C867.082 19.8784 867.073 20.0854 867.055 20.2834C867.037 20.4634 867.019 20.6164 867.001 20.7424H855.688C855.742 21.5704 855.967 22.2994 856.363 22.9294C856.777 23.5414 857.299 24.0274 857.929 24.3874C858.559 24.7294 859.234 24.9004 859.954 24.9004C860.746 24.9004 861.493 24.7024 862.195 24.3064C862.915 23.9104 863.401 23.3884 863.653 22.7404L866.191 23.4694C865.885 24.1534 865.417 24.7744 864.787 25.3324C864.175 25.8724 863.446 26.3044 862.6 26.6284C861.754 26.9344 860.836 27.0874 859.846 27.0874ZM855.607 18.7714H864.139C864.085 17.9614 863.851 17.2504 863.437 16.6384C863.041 16.0084 862.528 15.5224 861.898 15.1804C861.286 14.8204 860.602 14.6404 859.846 14.6404C859.108 14.6404 858.424 14.8204 857.794 15.1804C857.182 15.5224 856.678 16.0084 856.282 16.6384C855.886 17.2504 855.661 17.9614 855.607 18.7714ZM946.842 22.6864C946.842 21.7864 947.094 21.0034 947.598 20.3374C948.12 19.6534 948.831 19.1314 949.731 18.7714C950.631 18.3934 951.675 18.2044 952.863 18.2044C953.493 18.2044 954.132 18.2494 954.78 18.3394C955.446 18.4294 956.031 18.5734 956.535 18.7714V17.8804C956.535 16.8904 956.238 16.1164 955.644 15.5584C955.05 15.0004 954.195 14.7214 953.079 14.7214C952.287 14.7214 951.54 14.8654 950.838 15.1534C950.136 15.4234 949.389 15.8104 948.597 16.3144L947.598 14.3164C948.534 13.6864 949.47 13.2184 950.406 12.9124C951.36 12.6064 952.359 12.4534 953.403 12.4534C955.293 12.4534 956.778 12.9574 957.858 13.9654C958.956 14.9554 959.505 16.3684 959.505 18.2044V23.4694C959.505 23.8114 959.559 24.0544 959.667 24.1984C959.793 24.3424 960 24.4234 960.288 24.4414V26.8174C960.018 26.8714 959.775 26.9074 959.559 26.9254C959.343 26.9434 959.163 26.9524 959.019 26.9524C958.389 26.9524 957.912 26.7994 957.588 26.4934C957.264 26.1874 957.075 25.8274 957.021 25.4134L956.94 24.6034C956.328 25.3954 955.545 26.0074 954.591 26.4394C953.637 26.8714 952.674 27.0874 951.702 27.0874C950.766 27.0874 949.929 26.8984 949.191 26.5204C948.453 26.1244 947.877 25.5934 947.463 24.9274C947.049 24.2614 946.842 23.5144 946.842 22.6864ZM955.833 23.5504C956.049 23.3164 956.22 23.0824 956.346 22.8484C956.472 22.6144 956.535 22.4074 956.535 22.2274V20.6074C956.031 20.4094 955.5 20.2654 954.942 20.1754C954.384 20.0674 953.835 20.0134 953.295 20.0134C952.215 20.0134 951.333 20.2294 950.649 20.6614C949.983 21.0934 949.65 21.6874 949.65 22.4434C949.65 22.8574 949.758 23.2534 949.974 23.6314C950.208 24.0094 950.532 24.3154 950.946 24.5494C951.378 24.7834 951.909 24.9004 952.539 24.9004C953.187 24.9004 953.808 24.7744 954.402 24.5224C954.996 24.2704 955.473 23.9464 955.833 23.5504ZM970.859 26.0884C970.607 26.2144 970.292 26.3494 969.914 26.4934C969.536 26.6374 969.104 26.7634 968.618 26.8714C968.15 26.9794 967.664 27.0334 967.16 27.0334C966.548 27.0334 965.981 26.9254 965.459 26.7094C964.937 26.4934 964.514 26.1514 964.19 25.6834C963.884 25.1974 963.731 24.5764 963.731 23.8204V14.9914H961.868V12.6964H963.731V8.05235H966.701V12.6964H969.779V14.9914H966.701V22.8754C966.737 23.3614 966.89 23.7214 967.16 23.9554C967.448 24.1894 967.799 24.3064 968.213 24.3064C968.627 24.3064 969.023 24.2344 969.401 24.0904C969.779 23.9464 970.058 23.8294 970.238 23.7394L970.859 26.0884ZM1015.13 10.3204H1008.75V26.8174H1005.7V10.3204H999.304V7.64735H1015.13V10.3204ZM1017.32 26.8174V12.6964H1020.29V26.8174H1017.32ZM1017.32 10.3744V7.10735H1020.29V10.3744H1017.32ZM1045.46 26.8174H1042.49V18.9064C1042.49 17.5924 1042.27 16.6294 1041.84 16.0174C1041.41 15.4054 1040.78 15.0994 1039.95 15.0994C1039.12 15.0994 1038.35 15.4144 1037.63 16.0444C1036.93 16.6564 1036.43 17.4574 1036.14 18.4474V26.8174H1033.17V18.9064C1033.17 17.5924 1032.96 16.6294 1032.52 16.0174C1032.09 15.4054 1031.47 15.0994 1030.66 15.0994C1029.83 15.0994 1029.06 15.4054 1028.34 16.0174C1027.64 16.6294 1027.13 17.4304 1026.83 18.4204V26.8174H1023.86V12.6964H1026.56V15.5314C1027.12 14.5414 1027.84 13.7854 1028.74 13.2634C1029.66 12.7234 1030.71 12.4534 1031.88 12.4534C1033.05 12.4534 1033.96 12.7594 1034.63 13.3714C1035.31 13.9834 1035.74 14.7484 1035.9 15.6664C1036.51 14.6224 1037.26 13.8304 1038.14 13.2904C1039.04 12.7324 1040.07 12.4534 1041.22 12.4534C1042.05 12.4534 1042.74 12.6064 1043.3 12.9124C1043.86 13.2184 1044.29 13.6414 1044.59 14.1814C1044.9 14.7034 1045.12 15.3154 1045.24 16.0174C1045.39 16.7014 1045.46 17.4304 1045.46 18.2044V26.8174ZM1055.28 27.0874C1054.18 27.0874 1053.18 26.8984 1052.28 26.5204C1051.4 26.1244 1050.64 25.5934 1049.99 24.9274C1049.34 24.2434 1048.84 23.4694 1048.48 22.6054C1048.13 21.7234 1047.96 20.7874 1047.96 19.7974C1047.96 18.4654 1048.27 17.2504 1048.88 16.1524C1049.49 15.0364 1050.35 14.1454 1051.45 13.4794C1052.54 12.7954 1053.83 12.4534 1055.31 12.4534C1056.78 12.4534 1058.05 12.7954 1059.11 13.4794C1060.19 14.1454 1061.03 15.0274 1061.62 16.1254C1062.22 17.2234 1062.52 18.4024 1062.52 19.6624C1062.52 19.8784 1062.51 20.0854 1062.49 20.2834C1062.47 20.4634 1062.45 20.6164 1062.43 20.7424H1051.12C1051.18 21.5704 1051.4 22.2994 1051.8 22.9294C1052.21 23.5414 1052.73 24.0274 1053.36 24.3874C1053.99 24.7294 1054.67 24.9004 1055.39 24.9004C1056.18 24.9004 1056.93 24.7024 1057.63 24.3064C1058.35 23.9104 1058.83 23.3884 1059.09 22.7404L1061.62 23.4694C1061.32 24.1534 1060.85 24.7744 1060.22 25.3324C1059.61 25.8724 1058.88 26.3044 1058.03 26.6284C1057.19 26.9344 1056.27 27.0874 1055.28 27.0874ZM1051.04 18.7714H1059.57C1059.52 17.9614 1059.28 17.2504 1058.87 16.6384C1058.47 16.0084 1057.96 15.5224 1057.33 15.1804C1056.72 14.8204 1056.04 14.6404 1055.28 14.6404C1054.54 14.6404 1053.86 14.8204 1053.23 15.1804C1052.62 15.5224 1052.11 16.0084 1051.72 16.6384C1051.32 17.2504 1051.09 17.9614 1051.04 18.7714ZM1065.5 19.9864V7.45835H1068.47V19.9864H1065.5ZM1065.5 26.8174V23.1184H1068.47V26.8174H1065.5Z" fill="white"/>
</svg>
